<svg width="76" height="63" viewBox="0 0 76 63" xmlns="http://www.w3.org/2000/svg"><title>boxed water logo</title><path d="M75.768 57.18c0-3.2-5.794-23.34-5.794-23.34s-5.795 20.14-5.795 23.34a5.794 5.794 0 1 0 11.59 0zM57.911 38.75c0-.729-.337-1.094-1.01-1.094h-1.137v7.788h1.137c.673 0 1.01-.364 1.01-1.094v-5.6zM58.55 63c-.284-.477-.489-1.143-.616-2-.127-.856-.205-1.915-.233-3.178a167.561 167.561 0 0 1-.042-3.6c0-1.08-.029-2.111-.085-3.094-.056-1.29-.463-1.937-1.22-1.937h-.59V63h-4.252V33.783h6.105c1.614 0 2.762.344 3.442 1.031.68.688 1.02 1.832 1.02 3.431v5.39c0 1.094-.206 2.006-.617 2.736-.411.73-1.198 1.165-2.36 1.305v.168c.448.057.814.204 1.094.442.28.239.512.547.695.926.182.38.316.807.4 1.284.084.478.14.983.168 1.516.028.505.056 1.06.085 1.663.027.604.048 1.207.063 1.81.014.604.035 1.172.063 1.705.027.534.042.997.042 1.39.028.842.112 1.628.253 2.357.14.73.35 1.362.631 1.895V63H58.55zm-17.802 0V33.783h8.967v3.873H45v7.957h4.42v3.873H45v9.64h4.8V63h-9.052zm-4.4-25.344V63h-4.251V37.656h-2.821v-3.873h9.893v3.873h-2.82zM23.724 42.96h-.168l-.674 8.757h1.558l-.716-8.757zm1.6 20.04l-.8-7.283h-1.81l-.8 7.283h-4l3.41-29.217h4.8L29.533 63h-4.21zm-10.377 0h-3.832L9.6 50.539a37.173 37.173 0 0 1-.148-1.39 73.374 73.374 0 0 1-.105-1.305 174.03 174.03 0 0 0-.084-1.347h-.084c-.028.421-.057.87-.084 1.347-.029.393-.064.828-.106 1.305-.042.478-.091.94-.147 1.39L7.241 63H3.368L0 33.783h4.168l1.39 15.913c.027.394.055.843.083 1.348.028.505.056.996.085 1.473l.084 1.642h.084l.084-1.642.084-1.473c.028-.505.07-.954.127-1.348l1.39-15.913h3.535l1.39 15.913c.027.421.056.885.084 1.39.027.505.056.982.084 1.431.028.505.056 1.039.084 1.6h.084a233.393 233.393 0 0 1 .169-3.031c.028-.505.07-.969.126-1.39l1.347-15.913h3.873L14.945 63zM57.078 5.222c0-.73-.337-1.096-1.01-1.096h-1.306v21.47h1.305c.674 0 1.01-.35 1.01-1.054V5.222zm3.178 23.195c-.716.702-1.873 1.053-3.473 1.053H50.51V.253h6.273c1.6 0 2.757.357 3.473 1.073.716.716 1.074 1.874 1.074 3.473v20.124c0 1.628-.358 2.793-1.074 3.494zm-20.51 1.053V.253h8.967v3.873h-4.715v7.957h4.42v3.873h-4.42v9.64h4.8v3.874h-9.052zm-6.126 0l-1.6-7.957a16.321 16.321 0 0 1-.147-.99c-.042-.35-.091-.68-.147-.989a13.714 13.714 0 0 1-.127-1.136h-.084c-.028.393-.07.772-.126 1.136-.057.31-.099.64-.126.99-.029.351-.07.68-.127.989l-1.515 7.957h-4.295l4-15.493L25.748.253h4.462l1.179 6.693c.056.281.105.583.147.906.042.323.077.638.105.947l.085 1.01h.084c0-.337.028-.673.084-1.01.028-.309.063-.624.105-.947.043-.323.091-.625.148-.906L33.199.253h4.379L34.04 14.145l4.084 15.325H33.62zM19.88 5.054c0-.45-.113-.76-.338-.928-.224-.168-.547-.253-.968-.253-.42 0-.744.085-.968.253-.225.169-.337.478-.337.928v19.657c0 .45.112.752.337.907.224.154.547.231.968.231.421 0 .744-.077.968-.231.225-.155.337-.457.337-.907V5.054zm3.093 23.637c-.772.688-1.943 1.032-3.515 1.032h-1.726c-1.6 0-2.786-.351-3.557-1.053-.772-.701-1.158-1.88-1.158-3.536V4.63c0-1.684.386-2.877 1.158-3.579C14.946.352 16.133 0 17.732 0h1.684c1.6 0 2.785.351 3.557 1.052.772.702 1.158 1.895 1.158 3.579v20.503c0 1.684-.386 2.87-1.158 3.557zM7.157 17.181c0-.704-.337-1.057-1.01-1.057H4.926v9.473h1.22c.674 0 1.011-.352 1.011-1.057v-7.36zM6.99 5.221c0-.73-.337-1.095-1.01-1.095H4.925v8.251h1.052c.674 0 1.01-.35 1.01-1.052V5.22zm3.273 23.217c-.71.688-1.881 1.032-3.517 1.032H.683V.253h5.726c1.604 0 2.761.344 3.47 1.031.708.688 1.063 1.831 1.063 3.431V10.4c0 .982-.213 1.824-.638 2.526-.425.702-1.176 1.094-2.254 1.178v.169c1.248.056 2.105.42 2.573 1.094.468.674.702 1.587.702 2.737v6.904c0 1.6-.355 2.744-1.063 3.431z" fill-rule="evenodd"/></svg>