<svg width="18" height="21" viewBox="0 0 18 21" xmlns="http://www.w3.org/2000/svg">
<path d="M16.0714 1.28577H1.92857C1.41708 1.28577 0.926543 1.48895 0.564865 1.85063C0.203188 2.21231 0 2.70285 0 3.21434L0 17.3572C0 17.8687 0.203188 18.3592 0.564865 18.7209C0.926543 19.0826 1.41708 19.2858 1.92857 19.2858H7.44308V13.1662H4.91183V10.2858H7.44308V8.09041C7.44308 5.59331 8.92969 4.21398 11.2066 4.21398C12.2971 4.21398 13.4373 4.40845 13.4373 4.40845V6.85934H12.1809C10.943 6.85934 10.5569 7.62755 10.5569 8.41545V10.2858H13.3204L12.8784 13.1662H10.5569V19.2858H16.0714C16.5829 19.2858 17.0735 19.0826 17.4351 18.7209C17.7968 18.3592 18 17.8687 18 17.3572V3.21434C18 2.70285 17.7968 2.21231 17.4351 1.85063C17.0735 1.48895 16.5829 1.28577 16.0714 1.28577Z" fill="white"/>
</svg>