<svg width="20" height="20" viewBox="0 0 20 20" fill="none" xmlns="http://www.w3.org/2000/svg">
<path d="M13.3344 10C13.3344 9.08015 13.0089 8.29473 12.3579 7.64373C11.7069 6.99272 10.9215 6.66722 10.0017 6.66722C9.08182 6.66722 8.2964 6.99272 7.64539 7.64373C6.99439 8.29473 6.66889 9.08015 6.66889 10C6.66889 10.9198 6.99439 11.7053 7.64539 12.3563C8.2964 13.0073 9.08182 13.3328 10.0017 13.3328C10.9215 13.3328 11.7069 13.0073 12.3579 12.3563C13.0089 11.7053 13.3344 10.9198 13.3344 10ZM15.1308 10C15.1308 11.4231 14.632 12.634 13.6344 13.6327C12.6368 14.6315 11.4259 15.1303 10.0017 15.1291C8.57746 15.128 7.36655 14.6292 6.36894 13.6327C5.37133 12.6362 4.87252 11.4253 4.87252 10C4.87252 8.57468 5.37133 7.36377 6.36894 6.36727C7.36655 5.37077 8.57746 4.87197 10.0017 4.87085C11.4259 4.86974 12.6368 5.36855 13.6344 6.36727C14.632 7.36599 15.1308 8.5769 15.1308 10ZM16.5372 4.66256C16.5372 4.9925 16.42 5.27468 16.1856 5.50908C15.9512 5.74349 15.6691 5.86069 15.3391 5.86069C15.0092 5.86069 14.727 5.74349 14.4926 5.50908C14.2582 5.27468 14.141 4.9925 14.141 4.66256C14.141 4.33261 14.2582 4.05044 14.4926 3.81603C14.727 3.58162 15.0092 3.46442 15.3391 3.46442C15.6691 3.46442 15.9512 3.58162 16.1856 3.81603C16.42 4.05044 16.5372 4.33261 16.5372 4.66256ZM10.0017 1.79803L9.00517 1.79137C8.40193 1.78692 7.94423 1.78692 7.63206 1.79137C7.31989 1.79581 6.90107 1.80859 6.3756 1.82969C5.85014 1.8508 5.40299 1.89413 5.03416 1.95967C4.66533 2.02522 4.35483 2.10576 4.10265 2.2013C3.66828 2.3746 3.28612 2.62623 2.95617 2.95617C2.62623 3.28612 2.3746 3.66828 2.2013 4.10265C2.10576 4.35483 2.02522 4.66533 1.95967 5.03416C1.89413 5.40299 1.8508 5.85014 1.82969 6.3756C1.80859 6.90107 1.79581 7.31989 1.79137 7.63206C1.78692 7.94423 1.78692 8.40193 1.79137 9.00517C1.79581 9.6084 1.79803 9.94057 1.79803 10.0017C1.79803 10.0628 1.79581 10.3949 1.79137 10.9982C1.78692 11.6014 1.78692 12.0591 1.79137 12.3713C1.79581 12.6834 1.80859 13.1023 1.82969 13.6277C1.8508 14.1532 1.89413 14.6003 1.95967 14.9692C2.02522 15.338 2.10576 15.6485 2.2013 15.9007C2.3746 16.3351 2.62623 16.7172 2.95617 17.0472C3.28612 17.3771 3.66828 17.6287 4.10265 17.802C4.35483 17.8976 4.66533 17.9781 5.03416 18.0437C5.40299 18.1092 5.85014 18.1525 6.3756 18.1736C6.90107 18.1947 7.31989 18.2075 7.63206 18.212C7.94423 18.2164 8.40193 18.2164 9.00517 18.212C9.6084 18.2075 9.94057 18.2053 10.0017 18.2053C10.0628 18.2053 10.3949 18.2075 10.9982 18.212C11.6014 18.2164 12.0591 18.2164 12.3713 18.212C12.6834 18.2075 13.1023 18.1947 13.6277 18.1736C14.1532 18.1525 14.6003 18.1092 14.9692 18.0437C15.338 17.9781 15.6485 17.8976 15.9007 17.802C16.3351 17.6287 16.7172 17.3771 17.0472 17.0472C17.3771 16.7172 17.6287 16.3351 17.802 15.9007C17.8976 15.6485 17.9781 15.338 18.0437 14.9692C18.1092 14.6003 18.1525 14.1532 18.1736 13.6277C18.1947 13.1023 18.2075 12.6834 18.212 12.3713C18.2164 12.0591 18.2164 11.6014 18.212 10.9982C18.2075 10.3949 18.2053 10.0628 18.2053 10.0017C18.2053 9.94057 18.2075 9.6084 18.212 9.00517C18.2164 8.40193 18.2164 7.94423 18.212 7.63206C18.2075 7.31989 18.1947 6.90107 18.1736 6.3756C18.1525 5.85014 18.1092 5.40299 18.0437 5.03416C17.9781 4.66533 17.8976 4.35483 17.802 4.10265C17.6287 3.66828 17.3771 3.28612 17.0472 2.95617C16.7172 2.62623 16.3351 2.3746 15.9007 2.2013C15.6485 2.10576 15.338 2.02522 14.9692 1.95967C14.6003 1.89413 14.1532 1.8508 13.6277 1.82969C13.1023 1.80859 12.6834 1.79581 12.3713 1.79137C12.0591 1.78692 11.6014 1.78692 10.9982 1.79137C10.3949 1.79581 10.0628 1.79803 10.0017 1.79803ZM20 10C20 11.9874 19.9783 13.3633 19.935 14.1276C19.8484 15.9329 19.3101 17.3304 18.3203 18.3203C17.3304 19.3101 15.9329 19.8484 14.1276 19.935C13.3633 19.9783 11.9874 20 10 20C8.01255 20 6.63667 19.9783 5.87235 19.935C4.0671 19.8484 2.66956 19.3101 1.67972 18.3203C0.689885 17.3304 0.151641 15.9329 0.0649892 14.1276C0.0216631 13.3633 0 11.9874 0 10C0 8.01255 0.0216631 6.63667 0.0649892 5.87235C0.151641 4.0671 0.689885 2.66955 1.67972 1.67972C2.66956 0.689885 4.0671 0.151641 5.87235 0.0649891C6.63667 0.021663 8.01255 0 10 0C11.9874 0 13.3633 0.021663 14.1276 0.0649891C15.9329 0.151641 17.3304 0.689885 18.3203 1.67972C19.3101 2.66955 19.8484 4.0671 19.935 5.87235C19.9783 6.63667 20 8.01255 20 10Z" fill="white"/>
</svg>
