<svg width="18" height="21" viewBox="0 0 18 21" fill="none" xmlns="http://www.w3.org/2000/svg">
<g clip-path="url(#clip0)">
<path d="M4.09052 7.32451V18.9375H0.22352V7.32451H4.09052ZM4.33652 3.73801C4.34452 4.30801 4.14702 4.78451 3.74402 5.16751C3.34102 5.55051 2.81152 5.74201 2.15552 5.74201H2.13152C1.49052 5.74201 0.97502 5.55051 0.58502 5.16751C0.19502 4.78451 -0.000480102 4.30801 -0.0014801 3.73801C-0.0014801 3.16001 0.19952 2.68151 0.60152 2.30251C1.00352 1.92351 1.52902 1.73401 2.17802 1.73401C2.82702 1.73401 3.34652 1.92351 3.73652 2.30251C4.12652 2.68151 4.32552 3.16001 4.33352 3.73801H4.33652ZM18 12.2805V18.936H14.145V12.7245C14.145 11.9045 13.987 11.262 13.671 10.797C13.355 10.332 12.861 10.0995 12.189 10.0995C11.697 10.0995 11.285 10.2345 10.953 10.5045C10.621 10.7745 10.373 11.1085 10.209 11.5065C10.123 11.7405 10.08 12.057 10.08 12.456V18.936H6.22502C6.24102 15.819 6.24902 13.2915 6.24902 11.3535C6.24902 9.41551 6.24502 8.25901 6.23702 7.88401L6.22502 7.32151H10.08V9.00901H10.056C10.212 8.75901 10.372 8.54001 10.536 8.35201C10.7 8.16401 10.9205 7.96101 11.1975 7.74301C11.4745 7.52501 11.8145 7.35501 12.2175 7.23301C12.6205 7.11101 13.068 7.05051 13.56 7.05151C14.896 7.05151 15.97 7.49501 16.782 8.38201C17.594 9.26901 18.0005 10.568 18.0015 12.279L18 12.2805Z" fill="white"/>
</g>
<defs>
<clipPath id="clip0">
<rect width="18" height="21" fill="white"/>
</clipPath>
</defs>
</svg>
