<svg width="20" height="22" viewBox="0 0 20 22" fill="none" xmlns="http://www.w3.org/2000/svg">
<path d="M19.4708 4.90457C18.9344 5.69021 18.2851 6.35944 17.5231 6.91226C17.5313 7.02406 17.5354 7.19226 17.5354 7.41688C17.5354 8.45893 17.3831 9.49842 17.0785 10.5353C16.7738 11.5723 16.3113 12.5676 15.6908 13.5215C15.0703 14.4753 14.3313 15.3189 13.4738 16.0523C12.6164 16.7856 11.5826 17.3707 10.3723 17.8076C9.16205 18.2446 7.8682 18.463 6.49077 18.463C4.31948 18.463 2.33231 17.882 0.529228 16.72C0.809228 16.7518 1.12154 16.7677 1.46615 16.7677C3.26923 16.7677 4.87589 16.2148 6.28615 15.1092C5.44513 15.0928 4.69179 14.8343 4.02615 14.3338C3.36051 13.8333 2.90359 13.1943 2.65538 12.4169C2.92 12.4569 3.16461 12.4769 3.38923 12.4769C3.73384 12.4769 4.07436 12.4328 4.41077 12.3446C3.51333 12.16 2.77025 11.7133 2.18154 11.0046C1.59282 10.2959 1.29846 9.47278 1.29846 8.53534V8.48765C1.84307 8.79226 2.4282 8.95637 3.05384 8.97996C2.52461 8.62714 2.1041 8.16662 1.7923 7.59842C1.48051 7.03021 1.3241 6.41329 1.32307 5.74765C1.32307 5.04201 1.49948 4.38919 1.85231 3.78919C2.82154 4.98303 4.00154 5.93842 5.3923 6.65534C6.78307 7.37226 8.27128 7.77073 9.85692 7.85073C9.79333 7.54611 9.76154 7.2497 9.76154 6.96149C9.76154 5.88765 10.14 4.97226 10.8969 4.21534C11.6538 3.45842 12.5692 3.07996 13.6431 3.07996C14.7651 3.07996 15.7108 3.48867 16.48 4.30611C17.3538 4.1379 18.1754 3.8256 18.9446 3.36919C18.6482 4.29021 18.0795 5.00355 17.2385 5.50919C17.9841 5.42919 18.7292 5.22867 19.4738 4.90765L19.4708 4.90457Z" fill="white"/>
</svg>
